<svg id="visual" viewBox="0 0 960 540" width="960" height="540" xmlns="http://www.w3.org/2000/svg" xmlns:xlink="http://www.w3.org/1999/xlink" version="1.1"><rect width="960" height="540" fill="#FAFAFA"></rect><g><g transform="translate(775 168)"><path d="M0 -92.7L80.3 -46.3L80.3 46.3L0 92.7L-80.3 46.3L-80.3 -46.3Z" fill="#588dca"></path></g><g transform="translate(514 523)"><path d="M0 -84L72.7 -42L72.7 42L0 84L-72.7 42L-72.7 -42Z" fill="#588dca"></path></g><g transform="translate(1 186)"><path d="M0 -35L30.3 -17.5L30.3 17.5L0 35L-30.3 17.5L-30.3 -17.5Z" fill="#588dca"></path></g><g transform="translate(591 127)"><path d="M0 -44L38.1 -22L38.1 22L0 44L-38.1 22L-38.1 -22Z" fill="#588dca"></path></g><g transform="translate(771 377)"><path d="M0 -80L69.3 -40L69.3 40L0 80L-69.3 40L-69.3 -40Z" fill="#588dca"></path></g><g transform="translate(276 269)"><path d="M0 -51L44.2 -25.5L44.2 25.5L0 51L-44.2 25.5L-44.2 -25.5Z" fill="#588dca"></path></g><g transform="translate(380 28)"><path d="M0 -48L41.6 -24L41.6 24L0 48L-41.6 24L-41.6 -24Z" fill="#588dca"></path></g><g transform="translate(149 458)"><path d="M0 -72L62.4 -36L62.4 36L0 72L-62.4 36L-62.4 -36Z" fill="#588dca"></path></g><g transform="translate(142 20)"><path d="M0 -30L26 -15L26 15L0 30L-26 15L-26 -15Z" fill="#588dca"></path></g><g transform="translate(536 332)"><path d="M0 -32L27.7 -16L27.7 16L0 32L-27.7 16L-27.7 -16Z" fill="#588dca"></path></g><g transform="translate(943 527)"><path d="M0 -82L71 -41L71 41L0 82L-71 41L-71 -41Z" fill="#588dca"></path></g><g transform="translate(938 32)"><path d="M0 -64L55.4 -32L55.4 32L0 64L-55.4 32L-55.4 -32Z" fill="#588dca"></path></g><g transform="translate(950 297)"><path d="M0 -48L41.6 -24L41.6 24L0 48L-41.6 24L-41.6 -24Z" fill="#588dca"></path></g></g></svg>